# xmcd CD database file
#
# Track frame offsets:
#	150
#	8477
#	49088
#	92112
#	137685
#	172695
#	201043
#	237978
#	272027
#	311198
#
# Disc length: 4241 seconds
#
# Revision: 1
# Processed by: cddbd v1.5.1PL0 Copyright (c) Steve Scherf et al.
# Submitted via: CDex 1.51
#
DISCID=7d108f0a
DTITLE=Urban Techno Cafe - Flight 2 Bright
DYEAR=2001
DGENRE=Trance
TTITLE0=Open 21:00
TTITLE1=Space Embryo
TTITLE2=Psyclone
TTITLE3=Airflow
TTITLE4=Meteoric Ocean
TTITLE5=Star Tune
TTITLE6=Snowstorm
TTITLE7=Orbit
TTITLE8=Providence
TTITLE9=Close 5:00
EXTD=YEAR: 2001
EXTT0=
EXTT1=
EXTT2=
EXTT3=
EXTT4=
EXTT5=
EXTT6=
EXTT7=
EXTT8=
EXTT9=
PLAYORDER=
